<?xml version="1.0" encoding="utf-8" ?>
<svg baseProfile="tiny" height="100%" version="1.2" width="100%" xmlns="http://www.w3.org/2000/svg" xmlns:ev="http://www.w3.org/2001/xml-events" xmlns:xlink="http://www.w3.org/1999/xlink"><defs /><rect height="25" style="fill:#323031" width="25" x="0" y="0" /><rect height="25" style="fill:#323031" width="25" x="25" y="0" /><rect height="25" style="fill:#DFE0E2" width="25" x="25" y="25" /><rect height="25" style="fill:#323031" width="25" x="25" y="50" /><rect height="25" style="fill:#DFE0E2" width="25" x="25" y="75" /><rect height="25" style="fill:#f03a47" width="25" x="0" y="75" /><rect height="25" style="fill:#f03a47" width="25" x="0" y="50" /><rect height="25" style="fill:#f03a47" width="25" x="0" y="25" /><rect height="25" style="fill:#323031" width="25" x="25" y="100" /><rect height="25" style="fill:#DFE0E2" width="25" x="25" y="125" /><rect height="25" style="fill:#323031" width="25" x="25" y="150" /><rect height="25" style="fill:#f03a47" width="25" x="0" y="150" /><rect height="25" style="fill:#f03a47" width="25" x="0" y="125" /><rect height="25" style="fill:#f03a47" width="25" x="0" y="100" /><rect height="25" style="fill:#DFE0E2" width="25" x="25" y="175" /><rect height="25" style="fill:#323031" width="25" x="25" y="200" /><rect height="25" style="fill:#DFE0E2" width="25" x="25" y="225" /><rect height="25" style="fill:#f03a47" width="25" x="0" y="225" /><rect height="25" style="fill:#f03a47" width="25" x="0" y="200" /><rect height="25" style="fill:#f03a47" width="25" x="0" y="175" /><rect height="25" style="fill:#323031" width="25" x="0" y="250" /><rect height="25" style="fill:#323031" width="25" x="25" y="250" /></svg>